<svg xmlns="http://www.w3.org/2000/svg" xmlns:oryx="http://oryx-editor.org" id="_D3AF28D0-2B51-4629-8C57-EAD299B6C6C5" width="699" height="261" xmlns:xlink="http://www.w3.org/1999/xlink" xmlns:svg="http://www.w3.org/2000/svg"><defs><marker id="_831BC663-5CE5-4341-92AF-934CCCE99063start" refX="1" refY="5" markerUnits="userSpaceOnUse" markerWidth="17" markerHeight="11" orient="auto" fill="#000000" stroke="#000000"> 	  		<path id="_831BC663-5CE5-4341-92AF-934CCCE99063conditional" d="M 0 5 L 8 0 L 16 5 L 8 10 L 0 5" fill="white" stroke="#000000" stroke-width="1" display="none"/> 			<path id="_831BC663-5CE5-4341-92AF-934CCCE99063default" d="M 5 0 L 11 10" fill="white" stroke="#000000" stroke-width="1" display="none"/> 	  	</marker><marker id="_831BC663-5CE5-4341-92AF-934CCCE99063end" refX="15" refY="6" markerUnits="userSpaceOnUse" markerWidth="15" markerHeight="12" orient="auto" fill="#000000" stroke="#000000"> 	  		<path id="_831BC663-5CE5-4341-92AF-934CCCE99063frame2" d="M 0 1 L 15 6 L 0 11z" fill="#000000" stroke="#000000" stroke-linejoin="round" stroke-width="2"/> 	  	</marker><marker id="_C0E7C37C-FE87-437E-894A-F52A4AC7A761start" refX="1" refY="5" markerUnits="userSpaceOnUse" markerWidth="17" markerHeight="11" orient="auto" fill="#000000" stroke="#000000"> 	  		<path id="_C0E7C37C-FE87-437E-894A-F52A4AC7A761conditional" d="M 0 5 L 8 0 L 16 5 L 8 10 L 0 5" fill="white" stroke="#000000" stroke-width="1" display="none"/> 			<path id="_C0E7C37C-FE87-437E-894A-F52A4AC7A761default" d="M 5 0 L 11 10" fill="white" stroke="#000000" stroke-width="1" display="none"/> 	  	</marker><marker id="_C0E7C37C-FE87-437E-894A-F52A4AC7A761end" refX="15" refY="6" markerUnits="userSpaceOnUse" markerWidth="15" markerHeight="12" orient="auto" fill="#000000" stroke="#000000"> 	  		<path id="_C0E7C37C-FE87-437E-894A-F52A4AC7A761frame2" d="M 0 1 L 15 6 L 0 11z" fill="#000000" stroke="#000000" stroke-linejoin="round" stroke-width="2"/> 	  	</marker><marker id="_AA0C93E3-62C3-40CB-A752-64DC236E0F67start" refX="1" refY="5" markerUnits="userSpaceOnUse" markerWidth="17" markerHeight="11" orient="auto" fill="#000000" stroke="#000000"> 	  		<path id="_AA0C93E3-62C3-40CB-A752-64DC236E0F67conditional" d="M 0 5 L 8 0 L 16 5 L 8 10 L 0 5" fill="white" stroke="#000000" stroke-width="1" display="none"/> 			<path id="_AA0C93E3-62C3-40CB-A752-64DC236E0F67default" d="M 5 0 L 11 10" fill="white" stroke="#000000" stroke-width="1" display="none"/> 	  	</marker><marker id="_AA0C93E3-62C3-40CB-A752-64DC236E0F67end" refX="15" refY="6" markerUnits="userSpaceOnUse" markerWidth="15" markerHeight="12" orient="auto" fill="#000000" stroke="#000000"> 	  		<path id="_AA0C93E3-62C3-40CB-A752-64DC236E0F67frame2" d="M 0 1 L 15 6 L 0 11z" fill="#000000" stroke="#000000" stroke-linejoin="round" stroke-width="2"/> 	  	</marker></defs><g stroke="none" font-family="Verdana, sans-serif" font-size-adjust="none" font-style="normal" font-variant="normal" font-weight="normal" line-heigth="normal" font-size="12"><g class="stencils" transform="translate(16, 16)"><g class="me"/><g class="children"><g id="_0842E075-514C-4F42-BA12-074F5EE7A00E" bpmn2nodeid="processStartEvent"><g class="stencils" transform="translate(120, 165)"><g class="me"><g pointer-events="fill" id="_0842E075-514C-4F42-BA12-074F5EE7A00E">        <defs id="_0842E075-514C-4F42-BA12-074F5EE7A00E__0842E075-514C-4F42-BA12-074F5EE7A00E_5"> 		<radialGradient id="_0842E075-514C-4F42-BA12-074F5EE7A00Ebackground" cx="10%" cy="10%" r="100%" fx="10%" fy="10%"> 			<stop offset="0%" stop-color="#ffffff" stop-opacity="1" id="_0842E075-514C-4F42-BA12-074F5EE7A00E__0842E075-514C-4F42-BA12-074F5EE7A00E_6"/> 			<stop id="_0842E075-514C-4F42-BA12-074F5EE7A00Efill_el" offset="100%" stop-color="#9acd32" stop-opacity="1"/> 		</radialGradient> 	</defs> 	     <circle id="_0842E075-514C-4F42-BA12-074F5EE7A00Ebg_frame" cx="15" cy="15" r="15" stroke="#000000" fill="url(#_0842E075-514C-4F42-BA12-074F5EE7A00Ebackground) white" stroke-width="1" style="stroke-dasharray: 5.5, 3"/>      <circle id="_0842E075-514C-4F42-BA12-074F5EE7A00Eframe" cx="15" cy="15" r="15" stroke="#000000" fill="none" stroke-width="1" display="inherit"/>  	<text font-size="11" id="_0842E075-514C-4F42-BA12-074F5EE7A00Etext_name" x="15" y="32" oryx:align="top center" stroke="black" stroke-width="0pt" letter-spacing="-0.01px" fill="#000000" text-anchor="middle" transform="rotate(0 15 32)" visibility="inherit" oryx:fontSize="11"/>   </g></g><g class="children" style="overflow:hidden"/><g class="edge"/></g><g class="controls"><g class="dockers"/><g class="magnets" transform="translate(120, 165)"><g pointer-events="all" display="none" transform="translate(7, 7)"><circle cx="8" cy="8" r="4" stroke="none" fill="red" fill-opacity="0.3"/></g></g></g></g><g id="_4291A855-B171-4F84-BCBA-AFB3B42B39B3" bpmn2nodeid="_5253ABDB-F395-461E-99B6-CA823B298775"><g class="stencils" transform="translate(330, 140)"><g class="me"><g pointer-events="fill" oryx:minimumSize="50 40" id="_4291A855-B171-4F84-BCBA-AFB3B42B39B3">   	<defs id="_4291A855-B171-4F84-BCBA-AFB3B42B39B3__4291A855-B171-4F84-BCBA-AFB3B42B39B3_17"> 		<radialGradient id="_4291A855-B171-4F84-BCBA-AFB3B42B39B3background" cx="10%" cy="10%" r="100%" fx="10%" fy="10%"> 			<stop offset="0%" stop-color="#ffffff" stop-opacity="1" id="_4291A855-B171-4F84-BCBA-AFB3B42B39B3__4291A855-B171-4F84-BCBA-AFB3B42B39B3_18"/> 			<stop id="_4291A855-B171-4F84-BCBA-AFB3B42B39B3fill_el" offset="100%" stop-color="#fafad2" stop-opacity="1"/> 		</radialGradient> 		<radialGradient id="_4291A855-B171-4F84-BCBA-AFB3B42B39B3borderbackground" cx="10%" cy="10%" r="100%" fx="10%" fy="10%"> 			<stop offset="0%" stop-color="#ffffff" stop-opacity="1" id="_4291A855-B171-4F84-BCBA-AFB3B42B39B3__4291A855-B171-4F84-BCBA-AFB3B42B39B3_19"/> 			<stop id="_4291A855-B171-4F84-BCBA-AFB3B42B39B3fill_border" offset="100%" stop-color="#000000" stop-opacity="1" stroke="#000000"/> 		</radialGradient> 	</defs> 	 	<rect id="_4291A855-B171-4F84-BCBA-AFB3B42B39B3text_frame" oryx:anchors="bottom top right left" x="1" y="1" width="94" height="79" rx="10" ry="10" stroke="none" stroke-width="0" fill="none"/> 	<rect id="_4291A855-B171-4F84-BCBA-AFB3B42B39B3bg_frame" oryx:resize="vertical horizontal" x="0" y="0" width="100" height="80" rx="10" ry="10" stroke="#000000" stroke-width="1" fill="url(#_4291A855-B171-4F84-BCBA-AFB3B42B39B3background) #ffffcc"/> 		<text font-size="12" id="_4291A855-B171-4F84-BCBA-AFB3B42B39B3text_name" x="50" y="40" oryx:align="middle center" oryx:fittoelem="text_frame" stroke="black" text-anchor="middle" stroke-width="0pt" letter-spacing="-0.01px" fill="#000000" transform="rotate(0 50 40)" visibility="inherit" oryx:fontSize="12"><tspan x="50" y="40" dy="5">Regla</tspan></text>     <g id="_4291A855-B171-4F84-BCBA-AFB3B42B39B3manualTask" transform="scale(0.7,0.7) translate(8,8)" display="none">     	<path oryx:anchors="top left" id="_4291A855-B171-4F84-BCBA-AFB3B42B39B3frame" style="opacity:1;fill:none;fill-opacity:1;stroke-width:1" d="M0.5,3.751l4.083-3.25c0,0,11.166,0.083,12.083,0.083s-2.417,2.917-1.5,2.917     s11.667,0,12.584,0c1.166,1.708-0.168,3.167-0.834,3.667s0.875,1.917-1,4.417c-0.75,0.25,0.75,1.875-1.333,3.333     c-1.167,0.583,0.583,1.542-1.25,2.833c-1.167,0-20.833,0.083-20.833,0.083l-2-1.333V3.751z" stroke="#000000"/> 		<path id="_4291A855-B171-4F84-BCBA-AFB3B42B39B3frame2" oryx:anchors="top left" style="opacity:1;fill:none;stroke-width:2" d="M 13.5 7 L 27 7" stroke="#000000"/> 		<path id="_4291A855-B171-4F84-BCBA-AFB3B42B39B3frame3" oryx:anchors="top left" style="opacity:1;fill:none;stroke-width:2" d="M 13.5 11 L 26 11" stroke="#000000"/> 		<path id="_4291A855-B171-4F84-BCBA-AFB3B42B39B3frame4" oryx:anchors="top left" style="opacity:1;fill:none;stroke-width:1.5" d="M 14 14.5 L 25 14.5" stroke="#000000"/> 		<path id="_4291A855-B171-4F84-BCBA-AFB3B42B39B3frame5" oryx:anchors="top left" style="opacity:1;fill:none;stroke-width:1.5" d="M 8.2 3.1 L 15 3.1" stroke="#000000"/> 	</g> 	 	<g id="_4291A855-B171-4F84-BCBA-AFB3B42B39B3businessRuleTask" transform="scale(0.7,0.7) translate(8,8)" display="inherit"> 		<rect id="_4291A855-B171-4F84-BCBA-AFB3B42B39B3frame6" oryx:anchors="top left" x="0" y="0" width="22" height="4" style="opacity:1;fill:#B3B1B3;fill-opacity:1;" stroke="#000000"/> 		<rect id="_4291A855-B171-4F84-BCBA-AFB3B42B39B3frame7" oryx:anchors="top left" x="0" y="4" style="opacity:1;fill:none;" width="22" height="12" stroke="#000000"/> 		<path id="_4291A855-B171-4F84-BCBA-AFB3B42B39B3frame8" oryx:anchors="top left" style="opacity:1;fill:none;" d="M 0 10 L 22 10" stroke="#000000"/> 		<path id="_4291A855-B171-4F84-BCBA-AFB3B42B39B3frame9" oryx:anchors="top left" style="opacity:1; fill:none;" d="M 7 4 L 7 16" stroke="#000000"/> 	</g> 	 	<g id="_4291A855-B171-4F84-BCBA-AFB3B42B39B3scriptTask" transform="scale(0.7,0.7) translate(8,8)" display="none"> 		<path oryx:anchors="top left" id="_4291A855-B171-4F84-BCBA-AFB3B42B39B3frame10" style="opacity:1;fill:none;" stroke="#000000" d="M6.402,0.5h14.5c0,0-5.833,2.833-5.833,5.583s4.417,6,4.417,9.167    s-4.167,5.083-4.167,5.083H0.235c0,0,5-2.667,5-5s-4.583-6.75-4.583-9.25S6.402,0.5,6.402,0.5z"/> 		<path oryx:anchors="top left" id="_4291A855-B171-4F84-BCBA-AFB3B42B39B3frame11" style="opacity:1;fill:none;stroke-width:1.5" d="M 3.5 4.5 L 13.5 4.5" stroke="#000000"/> 		<path oryx:anchors="top left" id="_4291A855-B171-4F84-BCBA-AFB3B42B39B3frame12" style="opacity:1;fill:none;stroke-width:1.5" d="M 3.8 8.5 L 13.8 8.5" stroke="#000000"/> 		<path oryx:anchors="top left" id="_4291A855-B171-4F84-BCBA-AFB3B42B39B3frame13" style="opacity:1;fill:none;stroke-width:1.5" d="M 6.3 12.5 L 16.3 12.5" stroke="#000000"/> 		<path oryx:anchors="top left" id="_4291A855-B171-4F84-BCBA-AFB3B42B39B3frame14" style="opacity:1;fill:none;stroke-width:1.5" d="M 6.5 16.5 L 16.5 16.5" stroke="#000000"/> 	</g> 	 	<g id="_4291A855-B171-4F84-BCBA-AFB3B42B39B3userTask" transform="scale(0.7,0.7) translate(8,8)" display="none"> 		<path id="_4291A855-B171-4F84-BCBA-AFB3B42B39B3frame15" oryx:anchors="top left" style="opacity:1;fill:#F4F6F7" stroke="#000000" d="M0.585,24.167h24.083v-7.833c0,0-2.333-3.917-7.083-5.167h-9.25    c-4.417,1.333-7.833,5.75-7.833,5.75L0.585,24.167z"/> 		<path id="_4291A855-B171-4F84-BCBA-AFB3B42B39B3frame16" oryx:anchors="top left" style="opacity:1;fill:none" d="M 6 20 L 6 24" stroke="#000000"/> 		<path id="_4291A855-B171-4F84-BCBA-AFB3B42B39B3frame17" oryx:anchors="top left" style="opacity:1;fill:none" d="M 20 20 L 20 24" stroke="#000000"/> 		<circle id="_4291A855-B171-4F84-BCBA-AFB3B42B39B3frame18" oryx:anchors="top left" fill="black" cx="13.002" cy="5.916" r="5.417" stroke="#000000"/> 		<path id="_4291A855-B171-4F84-BCBA-AFB3B42B39B3frame19" oryx:anchors="top left" style="opacity:1;fill:#F0EFF0;" stroke="#000000" d="M8.043,7.083c0,0,2.814-2.426,5.376-1.807s4.624-0.693,4.624-0.693    c0.25,1.688,0.042,3.75-1.458,5.584c0,0,1.083,0.75,1.083,1.5s0.125,1.875-1,3s-5.5,1.25-6.75,0S8.668,12.834,8.668,12    s0.583-1.25,1.25-1.917C8.835,9.5,7.419,7.708,8.043,7.083z"/> 	</g> 	 	<g id="_4291A855-B171-4F84-BCBA-AFB3B42B39B3serviceTask" transform="scale(0.7,0.7) translate(8,8)" display="none"> 		<polygon oryx:anchors="top left" id="_4291A855-B171-4F84-BCBA-AFB3B42B39B3frame20" style="opacity:1;fill:#ffffff" stroke="#000000" points="15.392,5.064 17.954,2.502 20.347,4.895 17.786,7.455     18.729,9.732 22.353,9.732 22.353,13.115 18.731,13.115 17.788,15.392 20.351,17.955 17.958,20.347 15.397,17.786 13.12,18.729     13.12,22.353 9.737,22.353 9.737,18.731 7.46,17.788 4.897,20.35 2.506,17.958 5.066,15.397 4.124,13.12 0.5,13.12 0.5,9.737     4.121,9.737 5.065,7.461 2.503,4.898 4.895,2.506 7.455,5.066 9.732,4.125 9.732,0.5 13.116,0.5 13.116,4.121 "/> 		<circle oryx:anchors="top left" id="_4291A855-B171-4F84-BCBA-AFB3B42B39B3frame21" style="opacity:1;fill:none" stroke="#000000" cx="11.427" cy="11.426" r="3.714"/> 		<polygon oryx:anchors="top left" id="_4291A855-B171-4F84-BCBA-AFB3B42B39B3frame22" style="opacity:1;fill:#ffffff" stroke="#000000" points="21.392,11.064 23.954,8.502 26.347,10.895 23.786,13.455     24.729,15.732 28.353,15.732 28.353,19.115 24.731,19.115 23.788,21.392 26.351,23.955 23.958,26.347 21.397,23.786 19.12,24.729     19.12,28.353 15.737,28.353 15.737,24.731 13.46,23.788 10.897,26.35 8.506,23.958 11.066,21.397 10.124,19.12 6.5,19.12     6.5,15.737 10.121,15.737 11.065,13.461 8.503,10.898 10.895,8.506 13.455,11.066 15.732,10.125 15.732,6.5 19.116,6.5     19.116,10.121 "/> 		<circle oryx:anchors="top left" id="_4291A855-B171-4F84-BCBA-AFB3B42B39B3frame23" style="opacity:1;fill:none;" stroke="#000000" cx="17.427" cy="17.426" r="3.714"/> 	</g> 	 	<g id="_4291A855-B171-4F84-BCBA-AFB3B42B39B3sendTask" display="none"> 		<path id="_4291A855-B171-4F84-BCBA-AFB3B42B39B3stframe24" oryx:anchors="left top" stroke="#FFFFFF" fill="black" stroke-width="1" d="M8,11 L8,21 L24,21 L24,11 L16,17z"/> 		<path id="_4291A855-B171-4F84-BCBA-AFB3B42B39B3stframe25" oryx:anchors="left top" stroke="#FFFFFF" fill="black" stroke-width="1" d="M7,10 L16,17 L25 10z"/> 	</g> 	 	<g id="_4291A855-B171-4F84-BCBA-AFB3B42B39B3receiveTask" display="none"> 		<path id="_4291A855-B171-4F84-BCBA-AFB3B42B39B3frame26" oryx:anchors="left top" stroke="#000000" fill="none" stroke-width="1" d="M8,11 L8,21 L24,21 L24,11z M8,11 L16,17 L24,11"/> 	</g> 	 	<g id="_4291A855-B171-4F84-BCBA-AFB3B42B39B3none" display="inherit"/>  	<g id="_4291A855-B171-4F84-BCBA-AFB3B42B39B3sequential" display="none">         <path oryx:anchors="bottom" fill="none" stroke="#000000" stroke-width="2" d="M46,76h10M46,72h10 M46,68h10" id="_4291A855-B171-4F84-BCBA-AFB3B42B39B3__4291A855-B171-4F84-BCBA-AFB3B42B39B3_20"/>     </g>   </g></g><g class="children" style="overflow:hidden"/><g class="edge"/></g><g class="controls"><g class="dockers"/><g class="magnets" transform="translate(330, 140)"><g pointer-events="all" display="none" transform="translate(-7, 12)"><circle cx="8" cy="8" r="4" stroke="none" fill="red" fill-opacity="0.3"/></g><g pointer-events="all" display="none" transform="translate(-7, 32)"><circle cx="8" cy="8" r="4" stroke="none" fill="red" fill-opacity="0.3"/></g><g pointer-events="all" display="none" transform="translate(-7, 52)"><circle cx="8" cy="8" r="4" stroke="none" fill="red" fill-opacity="0.3"/></g><g pointer-events="all" display="none" transform="translate(17, 71)"><circle cx="8" cy="8" r="4" stroke="none" fill="red" fill-opacity="0.3"/></g><g pointer-events="all" display="none" transform="translate(42, 71)"><circle cx="8" cy="8" r="4" stroke="none" fill="red" fill-opacity="0.3"/></g><g pointer-events="all" display="none" transform="translate(67, 71)"><circle cx="8" cy="8" r="4" stroke="none" fill="red" fill-opacity="0.3"/></g><g pointer-events="all" display="none" transform="translate(91, 12)"><circle cx="8" cy="8" r="4" stroke="none" fill="red" fill-opacity="0.3"/></g><g pointer-events="all" display="none" transform="translate(91, 32)"><circle cx="8" cy="8" r="4" stroke="none" fill="red" fill-opacity="0.3"/></g><g pointer-events="all" display="none" transform="translate(91, 52)"><circle cx="8" cy="8" r="4" stroke="none" fill="red" fill-opacity="0.3"/></g><g pointer-events="all" display="none" transform="translate(17, -7)"><circle cx="8" cy="8" r="4" stroke="none" fill="red" fill-opacity="0.3"/></g><g pointer-events="all" display="none" transform="translate(42, -7)"><circle cx="8" cy="8" r="4" stroke="none" fill="red" fill-opacity="0.3"/></g><g pointer-events="all" display="none" transform="translate(67, -7)"><circle cx="8" cy="8" r="4" stroke="none" fill="red" fill-opacity="0.3"/></g><g pointer-events="all" display="none" transform="translate(42, 32)"><circle cx="8" cy="8" r="4" stroke="none" fill="red" fill-opacity="0.3"/></g></g></g></g><g id="_9C87718F-62ED-4AD4-AA9D-62BD4A056BC9" bpmn2nodeid="_D38B7AA7-0B61-4A6A-9149-DE60C0EB624C"><g class="stencils" transform="translate(485, 140)"><g class="me"><g pointer-events="fill" oryx:minimumSize="50 40" id="_9C87718F-62ED-4AD4-AA9D-62BD4A056BC9">   	<defs id="_9C87718F-62ED-4AD4-AA9D-62BD4A056BC9__9C87718F-62ED-4AD4-AA9D-62BD4A056BC9_17"> 		<radialGradient id="_9C87718F-62ED-4AD4-AA9D-62BD4A056BC9background" cx="10%" cy="10%" r="100%" fx="10%" fy="10%"> 			<stop offset="0%" stop-color="#ffffff" stop-opacity="1" id="_9C87718F-62ED-4AD4-AA9D-62BD4A056BC9__9C87718F-62ED-4AD4-AA9D-62BD4A056BC9_18"/> 			<stop id="_9C87718F-62ED-4AD4-AA9D-62BD4A056BC9fill_el" offset="100%" stop-color="#fafad2" stop-opacity="1"/> 		</radialGradient> 		<radialGradient id="_9C87718F-62ED-4AD4-AA9D-62BD4A056BC9borderbackground" cx="10%" cy="10%" r="100%" fx="10%" fy="10%"> 			<stop offset="0%" stop-color="#ffffff" stop-opacity="1" id="_9C87718F-62ED-4AD4-AA9D-62BD4A056BC9__9C87718F-62ED-4AD4-AA9D-62BD4A056BC9_19"/> 			<stop id="_9C87718F-62ED-4AD4-AA9D-62BD4A056BC9fill_border" offset="100%" stop-color="#000000" stop-opacity="1" stroke="#000000"/> 		</radialGradient> 	</defs> 	 	<rect id="_9C87718F-62ED-4AD4-AA9D-62BD4A056BC9text_frame" oryx:anchors="bottom top right left" x="1" y="1" width="94" height="79" rx="10" ry="10" stroke="none" stroke-width="0" fill="none"/> 	<rect id="_9C87718F-62ED-4AD4-AA9D-62BD4A056BC9bg_frame" oryx:resize="vertical horizontal" x="0" y="0" width="100" height="80" rx="10" ry="10" stroke="#000000" stroke-width="1" fill="url(#_9C87718F-62ED-4AD4-AA9D-62BD4A056BC9background) #ffffcc"/> 		<text font-size="12" id="_9C87718F-62ED-4AD4-AA9D-62BD4A056BC9text_name" x="50" y="40" oryx:align="middle center" oryx:fittoelem="text_frame" stroke="black" text-anchor="middle" stroke-width="0pt" letter-spacing="-0.01px" fill="#000000" transform="rotate(0 50 40)" visibility="inherit" oryx:fontSize="12"><tspan x="50" y="40" dy="5">Salida</tspan></text>     <g id="_9C87718F-62ED-4AD4-AA9D-62BD4A056BC9manualTask" transform="scale(0.7,0.7) translate(8,8)" display="none">     	<path oryx:anchors="top left" id="_9C87718F-62ED-4AD4-AA9D-62BD4A056BC9frame" style="opacity:1;fill:none;fill-opacity:1;stroke-width:1" d="M0.5,3.751l4.083-3.25c0,0,11.166,0.083,12.083,0.083s-2.417,2.917-1.5,2.917     s11.667,0,12.584,0c1.166,1.708-0.168,3.167-0.834,3.667s0.875,1.917-1,4.417c-0.75,0.25,0.75,1.875-1.333,3.333     c-1.167,0.583,0.583,1.542-1.25,2.833c-1.167,0-20.833,0.083-20.833,0.083l-2-1.333V3.751z" stroke="#000000"/> 		<path id="_9C87718F-62ED-4AD4-AA9D-62BD4A056BC9frame2" oryx:anchors="top left" style="opacity:1;fill:none;stroke-width:2" d="M 13.5 7 L 27 7" stroke="#000000"/> 		<path id="_9C87718F-62ED-4AD4-AA9D-62BD4A056BC9frame3" oryx:anchors="top left" style="opacity:1;fill:none;stroke-width:2" d="M 13.5 11 L 26 11" stroke="#000000"/> 		<path id="_9C87718F-62ED-4AD4-AA9D-62BD4A056BC9frame4" oryx:anchors="top left" style="opacity:1;fill:none;stroke-width:1.5" d="M 14 14.5 L 25 14.5" stroke="#000000"/> 		<path id="_9C87718F-62ED-4AD4-AA9D-62BD4A056BC9frame5" oryx:anchors="top left" style="opacity:1;fill:none;stroke-width:1.5" d="M 8.2 3.1 L 15 3.1" stroke="#000000"/> 	</g> 	 	<g id="_9C87718F-62ED-4AD4-AA9D-62BD4A056BC9businessRuleTask" transform="scale(0.7,0.7) translate(8,8)" display="none"> 		<rect id="_9C87718F-62ED-4AD4-AA9D-62BD4A056BC9frame6" oryx:anchors="top left" x="0" y="0" width="22" height="4" style="opacity:1;fill:#B3B1B3;fill-opacity:1;" stroke="#000000"/> 		<rect id="_9C87718F-62ED-4AD4-AA9D-62BD4A056BC9frame7" oryx:anchors="top left" x="0" y="4" style="opacity:1;fill:none;" width="22" height="12" stroke="#000000"/> 		<path id="_9C87718F-62ED-4AD4-AA9D-62BD4A056BC9frame8" oryx:anchors="top left" style="opacity:1;fill:none;" d="M 0 10 L 22 10" stroke="#000000"/> 		<path id="_9C87718F-62ED-4AD4-AA9D-62BD4A056BC9frame9" oryx:anchors="top left" style="opacity:1; fill:none;" d="M 7 4 L 7 16" stroke="#000000"/> 	</g> 	 	<g id="_9C87718F-62ED-4AD4-AA9D-62BD4A056BC9scriptTask" transform="scale(0.7,0.7) translate(8,8)" display="none"> 		<path oryx:anchors="top left" id="_9C87718F-62ED-4AD4-AA9D-62BD4A056BC9frame10" style="opacity:1;fill:none;" stroke="#000000" d="M6.402,0.5h14.5c0,0-5.833,2.833-5.833,5.583s4.417,6,4.417,9.167    s-4.167,5.083-4.167,5.083H0.235c0,0,5-2.667,5-5s-4.583-6.75-4.583-9.25S6.402,0.5,6.402,0.5z"/> 		<path oryx:anchors="top left" id="_9C87718F-62ED-4AD4-AA9D-62BD4A056BC9frame11" style="opacity:1;fill:none;stroke-width:1.5" d="M 3.5 4.5 L 13.5 4.5" stroke="#000000"/> 		<path oryx:anchors="top left" id="_9C87718F-62ED-4AD4-AA9D-62BD4A056BC9frame12" style="opacity:1;fill:none;stroke-width:1.5" d="M 3.8 8.5 L 13.8 8.5" stroke="#000000"/> 		<path oryx:anchors="top left" id="_9C87718F-62ED-4AD4-AA9D-62BD4A056BC9frame13" style="opacity:1;fill:none;stroke-width:1.5" d="M 6.3 12.5 L 16.3 12.5" stroke="#000000"/> 		<path oryx:anchors="top left" id="_9C87718F-62ED-4AD4-AA9D-62BD4A056BC9frame14" style="opacity:1;fill:none;stroke-width:1.5" d="M 6.5 16.5 L 16.5 16.5" stroke="#000000"/> 	</g> 	 	<g id="_9C87718F-62ED-4AD4-AA9D-62BD4A056BC9userTask" transform="scale(0.7,0.7) translate(8,8)" display="inherit"> 		<path id="_9C87718F-62ED-4AD4-AA9D-62BD4A056BC9frame15" oryx:anchors="top left" style="opacity:1;fill:#F4F6F7" stroke="#000000" d="M0.585,24.167h24.083v-7.833c0,0-2.333-3.917-7.083-5.167h-9.25    c-4.417,1.333-7.833,5.75-7.833,5.75L0.585,24.167z"/> 		<path id="_9C87718F-62ED-4AD4-AA9D-62BD4A056BC9frame16" oryx:anchors="top left" style="opacity:1;fill:none" d="M 6 20 L 6 24" stroke="#000000"/> 		<path id="_9C87718F-62ED-4AD4-AA9D-62BD4A056BC9frame17" oryx:anchors="top left" style="opacity:1;fill:none" d="M 20 20 L 20 24" stroke="#000000"/> 		<circle id="_9C87718F-62ED-4AD4-AA9D-62BD4A056BC9frame18" oryx:anchors="top left" fill="black" cx="13.002" cy="5.916" r="5.417" stroke="#000000"/> 		<path id="_9C87718F-62ED-4AD4-AA9D-62BD4A056BC9frame19" oryx:anchors="top left" style="opacity:1;fill:#F0EFF0;" stroke="#000000" d="M8.043,7.083c0,0,2.814-2.426,5.376-1.807s4.624-0.693,4.624-0.693    c0.25,1.688,0.042,3.75-1.458,5.584c0,0,1.083,0.75,1.083,1.5s0.125,1.875-1,3s-5.5,1.25-6.75,0S8.668,12.834,8.668,12    s0.583-1.25,1.25-1.917C8.835,9.5,7.419,7.708,8.043,7.083z"/> 	</g> 	 	<g id="_9C87718F-62ED-4AD4-AA9D-62BD4A056BC9serviceTask" transform="scale(0.7,0.7) translate(8,8)" display="none"> 		<polygon oryx:anchors="top left" id="_9C87718F-62ED-4AD4-AA9D-62BD4A056BC9frame20" style="opacity:1;fill:#ffffff" stroke="#000000" points="15.392,5.064 17.954,2.502 20.347,4.895 17.786,7.455     18.729,9.732 22.353,9.732 22.353,13.115 18.731,13.115 17.788,15.392 20.351,17.955 17.958,20.347 15.397,17.786 13.12,18.729     13.12,22.353 9.737,22.353 9.737,18.731 7.46,17.788 4.897,20.35 2.506,17.958 5.066,15.397 4.124,13.12 0.5,13.12 0.5,9.737     4.121,9.737 5.065,7.461 2.503,4.898 4.895,2.506 7.455,5.066 9.732,4.125 9.732,0.5 13.116,0.5 13.116,4.121 "/> 		<circle oryx:anchors="top left" id="_9C87718F-62ED-4AD4-AA9D-62BD4A056BC9frame21" style="opacity:1;fill:none" stroke="#000000" cx="11.427" cy="11.426" r="3.714"/> 		<polygon oryx:anchors="top left" id="_9C87718F-62ED-4AD4-AA9D-62BD4A056BC9frame22" style="opacity:1;fill:#ffffff" stroke="#000000" points="21.392,11.064 23.954,8.502 26.347,10.895 23.786,13.455     24.729,15.732 28.353,15.732 28.353,19.115 24.731,19.115 23.788,21.392 26.351,23.955 23.958,26.347 21.397,23.786 19.12,24.729     19.12,28.353 15.737,28.353 15.737,24.731 13.46,23.788 10.897,26.35 8.506,23.958 11.066,21.397 10.124,19.12 6.5,19.12     6.5,15.737 10.121,15.737 11.065,13.461 8.503,10.898 10.895,8.506 13.455,11.066 15.732,10.125 15.732,6.5 19.116,6.5     19.116,10.121 "/> 		<circle oryx:anchors="top left" id="_9C87718F-62ED-4AD4-AA9D-62BD4A056BC9frame23" style="opacity:1;fill:none;" stroke="#000000" cx="17.427" cy="17.426" r="3.714"/> 	</g> 	 	<g id="_9C87718F-62ED-4AD4-AA9D-62BD4A056BC9sendTask" display="none"> 		<path id="_9C87718F-62ED-4AD4-AA9D-62BD4A056BC9stframe24" oryx:anchors="left top" stroke="#FFFFFF" fill="black" stroke-width="1" d="M8,11 L8,21 L24,21 L24,11 L16,17z"/> 		<path id="_9C87718F-62ED-4AD4-AA9D-62BD4A056BC9stframe25" oryx:anchors="left top" stroke="#FFFFFF" fill="black" stroke-width="1" d="M7,10 L16,17 L25 10z"/> 	</g> 	 	<g id="_9C87718F-62ED-4AD4-AA9D-62BD4A056BC9receiveTask" display="none"> 		<path id="_9C87718F-62ED-4AD4-AA9D-62BD4A056BC9frame26" oryx:anchors="left top" stroke="#000000" fill="none" stroke-width="1" d="M8,11 L8,21 L24,21 L24,11z M8,11 L16,17 L24,11"/> 	</g> 	 	<g id="_9C87718F-62ED-4AD4-AA9D-62BD4A056BC9none" display="inherit"/>  	<g id="_9C87718F-62ED-4AD4-AA9D-62BD4A056BC9sequential" display="none">         <path oryx:anchors="bottom" fill="none" stroke="#000000" stroke-width="2" d="M46,76h10M46,72h10 M46,68h10" id="_9C87718F-62ED-4AD4-AA9D-62BD4A056BC9__9C87718F-62ED-4AD4-AA9D-62BD4A056BC9_20"/>     </g>   </g></g><g class="children" style="overflow:hidden"/><g class="edge"/></g><g class="controls"><g class="dockers"/><g class="magnets" transform="translate(485, 140)"><g pointer-events="all" display="none" transform="translate(-7, 12)"><circle cx="8" cy="8" r="4" stroke="none" fill="red" fill-opacity="0.3"/></g><g pointer-events="all" display="none" transform="translate(-7, 32)"><circle cx="8" cy="8" r="4" stroke="none" fill="red" fill-opacity="0.3"/></g><g pointer-events="all" display="none" transform="translate(-7, 52)"><circle cx="8" cy="8" r="4" stroke="none" fill="red" fill-opacity="0.3"/></g><g pointer-events="all" display="none" transform="translate(17, 71)"><circle cx="8" cy="8" r="4" stroke="none" fill="red" fill-opacity="0.3"/></g><g pointer-events="all" display="none" transform="translate(42, 71)"><circle cx="8" cy="8" r="4" stroke="none" fill="red" fill-opacity="0.3"/></g><g pointer-events="all" display="none" transform="translate(67, 71)"><circle cx="8" cy="8" r="4" stroke="none" fill="red" fill-opacity="0.3"/></g><g pointer-events="all" display="none" transform="translate(91, 12)"><circle cx="8" cy="8" r="4" stroke="none" fill="red" fill-opacity="0.3"/></g><g pointer-events="all" display="none" transform="translate(91, 32)"><circle cx="8" cy="8" r="4" stroke="none" fill="red" fill-opacity="0.3"/></g><g pointer-events="all" display="none" transform="translate(91, 52)"><circle cx="8" cy="8" r="4" stroke="none" fill="red" fill-opacity="0.3"/></g><g pointer-events="all" display="none" transform="translate(17, -7)"><circle cx="8" cy="8" r="4" stroke="none" fill="red" fill-opacity="0.3"/></g><g pointer-events="all" display="none" transform="translate(42, -7)"><circle cx="8" cy="8" r="4" stroke="none" fill="red" fill-opacity="0.3"/></g><g pointer-events="all" display="none" transform="translate(67, -7)"><circle cx="8" cy="8" r="4" stroke="none" fill="red" fill-opacity="0.3"/></g><g pointer-events="all" display="none" transform="translate(42, 32)"><circle cx="8" cy="8" r="4" stroke="none" fill="red" fill-opacity="0.3"/></g></g></g></g><g id="_B5EE1004-05A4-48FF-9975-EDDA2B190BB6" bpmn2nodeid="_AD432322-D494-4028-B081-6DD12842A7CE"><g class="stencils" transform="translate(630, 166)"><g class="me"><g pointer-events="fill" id="_B5EE1004-05A4-48FF-9975-EDDA2B190BB6">      <defs id="_B5EE1004-05A4-48FF-9975-EDDA2B190BB6__B5EE1004-05A4-48FF-9975-EDDA2B190BB6_5"> 		<radialGradient id="_B5EE1004-05A4-48FF-9975-EDDA2B190BB6background" cx="10%" cy="10%" r="100%" fx="10%" fy="10%"> 			<stop offset="0%" stop-color="#ffffff" stop-opacity="1" id="_B5EE1004-05A4-48FF-9975-EDDA2B190BB6__B5EE1004-05A4-48FF-9975-EDDA2B190BB6_6"/> 			<stop id="_B5EE1004-05A4-48FF-9975-EDDA2B190BB6fill_el" offset="100%" stop-color="#ff6347" stop-opacity="1"/> 		</radialGradient> 	</defs> 	     <circle id="_B5EE1004-05A4-48FF-9975-EDDA2B190BB6bg_frame" cx="14" cy="14" r="14" stroke="#000000" fill="url(#_B5EE1004-05A4-48FF-9975-EDDA2B190BB6background) white" stroke-width="3"/> 	<text font-size="11" id="_B5EE1004-05A4-48FF-9975-EDDA2B190BB6text_name" x="14" y="30" oryx:align="top center" stroke="black" stroke-width="0pt" letter-spacing="-0.01px" fill="#000000" text-anchor="middle" transform="rotate(0 14 30)" visibility="inherit" oryx:fontSize="11"/>   </g></g><g class="children" style="overflow:hidden"/><g class="edge"/></g><g class="controls"><g class="dockers"/><g class="magnets" transform="translate(630, 166)"><g pointer-events="all" display="none" transform="translate(6, 6)"><circle cx="8" cy="8" r="4" stroke="none" fill="red" fill-opacity="0.3"/></g></g></g></g></g><g class="edge"><g id="_831BC663-5CE5-4341-92AF-934CCCE99063" bpmn2nodeid="_77A25D9B-8B36-457D-9EEE-6F05BFEF94AC"><g class="stencils"><g class="me"><g pointer-events="painted" bpmn2nodeid="_8C9D8502-DEFE-40E6-BFA2-E9FB7BEF1C4E"><path id="_831BC663-5CE5-4341-92AF-934CCCE99063_1" d="M430.6484375 180L484.3515625 180 " stroke="#000000" fill="none" stroke-width="2" stroke-linecap="round" stroke-linejoin="round" marker-start="url(#_831BC663-5CE5-4341-92AF-934CCCE99063start)" marker-end="url(#_831BC663-5CE5-4341-92AF-934CCCE99063end)"/></g><text id="_831BC663-5CE5-4341-92AF-934CCCE99063text_name" font-size="12" x="444.6484375" y="166" oryx:edgePosition="startTop" stroke-width="0pt" letter-spacing="-0.01px" fill="#000000" text-anchor="start" transform="rotate(360 430.6484375 180)" visibility="inherit" oryx:fontSize="12"/></g><g class="children" style="overflow:hidden"/><g class="edge"/></g><g class="controls"><g class="dockers"/><g class="magnets"/></g></g><g id="_C0E7C37C-FE87-437E-894A-F52A4AC7A761" bpmn2nodeid="_E7757C70-753B-43C3-969D-747CD8C33B36"><g class="stencils"><g class="me"><g pointer-events="painted" bpmn2nodeid="_BEFD99D1-3CA3-4C8C-96F3-E6A851CFFD77"><path id="_C0E7C37C-FE87-437E-894A-F52A4AC7A761_1" d="M585.390625 180L629.375 180 " stroke="#000000" fill="none" stroke-width="2" stroke-linecap="round" stroke-linejoin="round" marker-start="url(#_C0E7C37C-FE87-437E-894A-F52A4AC7A761start)" marker-end="url(#_C0E7C37C-FE87-437E-894A-F52A4AC7A761end)"/></g><text id="_C0E7C37C-FE87-437E-894A-F52A4AC7A761text_name" font-size="12" x="599.390625" y="166" oryx:edgePosition="startTop" stroke-width="0pt" letter-spacing="-0.01px" fill="#000000" text-anchor="start" transform="rotate(360 585.390625 180)" visibility="inherit" oryx:fontSize="12"/></g><g class="children" style="overflow:hidden"/><g class="edge"/></g><g class="controls"><g class="dockers"/><g class="magnets"/></g></g><g id="_AA0C93E3-62C3-40CB-A752-64DC236E0F67" bpmn2nodeid="_EB8B4E8B-7AE0-4E18-8884-0C4D79404DC4"><g class="stencils"><g class="me"><g pointer-events="painted" bpmn2nodeid="_EB8B4E8B-7AE0-4E18-8884-0C4D79404DC4"><path id="_AA0C93E3-62C3-40CB-A752-64DC236E0F67_1" d="M150.35546875 180L329.234375 180 " stroke="#000000" fill="none" stroke-width="2" stroke-linecap="round" stroke-linejoin="round" marker-start="url(#_AA0C93E3-62C3-40CB-A752-64DC236E0F67start)" marker-end="url(#_AA0C93E3-62C3-40CB-A752-64DC236E0F67end)"/></g><text id="_AA0C93E3-62C3-40CB-A752-64DC236E0F67text_name" font-size="12" x="164.35546875" y="166" oryx:edgePosition="startTop" stroke-width="0pt" letter-spacing="-0.01px" fill="#000000" text-anchor="start" transform="rotate(360 150.35546875 180)" visibility="inherit" oryx:fontSize="12"/></g><g class="children" style="overflow:hidden"/><g class="edge"/></g><g class="controls"><g class="dockers"/><g class="magnets"/></g></g></g><text id="_F26D5088-A976-4098-997F-A56E0F4D4592" style="stroke-width:1;fill:rgb(177,194,214);font-family:arial;font-weight:bold" font-size="12" onclick="ORYX.Plugins.CanvasTitle.openTextualAnalysis()" onmouseover="ORYX.Plugins.CanvasTitle.addToolTip('_F26D5088-A976-4098-997F-A56E0F4D4592')" transform="translate(10, 20)">TestProcess v.1.0 (com.myspace.cursojbpmbasics.negocio.TestProcess)</text></g></g></svg>