<svg xmlns="http://www.w3.org/2000/svg" xmlns:oryx="http://oryx-editor.org" id="_BAF2E91C-133A-40C7-9791-04E3D88553BD" width="743" height="241" xmlns:xlink="http://www.w3.org/1999/xlink" xmlns:svg="http://www.w3.org/2000/svg"><defs><marker id="_0B8A351C-5D08-4E7A-A5C5-51FF788C1392start" refX="1" refY="5" markerUnits="userSpaceOnUse" markerWidth="17" markerHeight="11" orient="auto" fill="#000000" stroke="#000000"> 	  		<path id="_0B8A351C-5D08-4E7A-A5C5-51FF788C1392conditional" d="M 0 5 L 8 0 L 16 5 L 8 10 L 0 5" fill="white" stroke="#000000" stroke-width="1" display="none"/> 			<path id="_0B8A351C-5D08-4E7A-A5C5-51FF788C1392default" d="M 5 0 L 11 10" fill="white" stroke="#000000" stroke-width="1" display="none"/> 	  	</marker><marker id="_0B8A351C-5D08-4E7A-A5C5-51FF788C1392end" refX="15" refY="6" markerUnits="userSpaceOnUse" markerWidth="15" markerHeight="12" orient="auto" fill="#000000" stroke="#000000"> 	  		<path id="_0B8A351C-5D08-4E7A-A5C5-51FF788C1392frame2" d="M 0 1 L 15 6 L 0 11z" fill="#000000" stroke="#000000" stroke-linejoin="round" stroke-width="2"/> 	  	</marker><marker id="_36115742-3B4C-41EF-A7B5-39FF82F5C458start" refX="1" refY="5" markerUnits="userSpaceOnUse" markerWidth="17" markerHeight="11" orient="auto" fill="#000000" stroke="#000000"> 	  		<path id="_36115742-3B4C-41EF-A7B5-39FF82F5C458conditional" d="M 0 5 L 8 0 L 16 5 L 8 10 L 0 5" fill="white" stroke="#000000" stroke-width="1" display="none"/> 			<path id="_36115742-3B4C-41EF-A7B5-39FF82F5C458default" d="M 5 0 L 11 10" fill="white" stroke="#000000" stroke-width="1" display="none"/> 	  	</marker><marker id="_36115742-3B4C-41EF-A7B5-39FF82F5C458end" refX="15" refY="6" markerUnits="userSpaceOnUse" markerWidth="15" markerHeight="12" orient="auto" fill="#000000" stroke="#000000"> 	  		<path id="_36115742-3B4C-41EF-A7B5-39FF82F5C458frame2" d="M 0 1 L 15 6 L 0 11z" fill="#000000" stroke="#000000" stroke-linejoin="round" stroke-width="2"/> 	  	</marker><marker id="_207B5BAF-B519-477B-AA6D-72F365738CF3start" refX="1" refY="5" markerUnits="userSpaceOnUse" markerWidth="17" markerHeight="11" orient="auto" fill="#000000" stroke="#000000"> 	  		<path id="_207B5BAF-B519-477B-AA6D-72F365738CF3conditional" d="M 0 5 L 8 0 L 16 5 L 8 10 L 0 5" fill="white" stroke="#000000" stroke-width="1" display="none"/> 			<path id="_207B5BAF-B519-477B-AA6D-72F365738CF3default" d="M 5 0 L 11 10" fill="white" stroke="#000000" stroke-width="1" display="none"/> 	  	</marker><marker id="_207B5BAF-B519-477B-AA6D-72F365738CF3end" refX="15" refY="6" markerUnits="userSpaceOnUse" markerWidth="15" markerHeight="12" orient="auto" fill="#000000" stroke="#000000"> 	  		<path id="_207B5BAF-B519-477B-AA6D-72F365738CF3frame2" d="M 0 1 L 15 6 L 0 11z" fill="#000000" stroke="#000000" stroke-linejoin="round" stroke-width="2"/> 	  	</marker></defs><g stroke="none" font-family="Verdana, sans-serif" font-size-adjust="none" font-style="normal" font-variant="normal" font-weight="normal" line-heigth="normal" font-size="12"><g class="stencils" transform="translate(15, 16)"><g class="me"/><g class="children"><g id="_0D8AACEB-99E2-4FE7-82A1-F7E02053ABE6" bpmn2nodeid="processStartEvent"><g class="stencils" transform="translate(120, 145)"><g class="me"><g pointer-events="fill" id="_0D8AACEB-99E2-4FE7-82A1-F7E02053ABE6">        <defs id="_0D8AACEB-99E2-4FE7-82A1-F7E02053ABE6__0D8AACEB-99E2-4FE7-82A1-F7E02053ABE6_5"> 		<radialGradient id="_0D8AACEB-99E2-4FE7-82A1-F7E02053ABE6background" cx="10%" cy="10%" r="100%" fx="10%" fy="10%"> 			<stop offset="0%" stop-color="#ffffff" stop-opacity="1" id="_0D8AACEB-99E2-4FE7-82A1-F7E02053ABE6__0D8AACEB-99E2-4FE7-82A1-F7E02053ABE6_6"/> 			<stop id="_0D8AACEB-99E2-4FE7-82A1-F7E02053ABE6fill_el" offset="100%" stop-color="#9acd32" stop-opacity="1"/> 		</radialGradient> 	</defs> 	     <circle id="_0D8AACEB-99E2-4FE7-82A1-F7E02053ABE6bg_frame" cx="15" cy="15" r="15" stroke="#000000" fill="url(#_0D8AACEB-99E2-4FE7-82A1-F7E02053ABE6background) white" stroke-width="1" style="stroke-dasharray: 5.5, 3"/>      <circle id="_0D8AACEB-99E2-4FE7-82A1-F7E02053ABE6frame" cx="15" cy="15" r="15" stroke="#000000" fill="none" stroke-width="1" display="inherit"/>  	<text font-size="11" id="_0D8AACEB-99E2-4FE7-82A1-F7E02053ABE6text_name" x="15" y="32" oryx:align="top center" stroke="black" stroke-width="0pt" letter-spacing="-0.01px" fill="#000000" text-anchor="middle" transform="rotate(0 15 32)" visibility="inherit" oryx:fontSize="11"/>   </g></g><g class="children" style="overflow:hidden"/><g class="edge"/></g><g class="controls"><g class="dockers"/><g class="magnets" transform="translate(120, 145)"><g pointer-events="all" display="none" transform="translate(7, 7)"><circle cx="8" cy="8" r="4" stroke="none" fill="red" fill-opacity="0.3"/></g></g></g></g><g id="_F5D53173-B529-464F-88BA-3A6333DA7398" bpmn2nodeid="_555005EC-0261-4686-8193-676D24AB1AEC"><g class="stencils" transform="translate(270, 120)"><g class="me"><g pointer-events="fill" oryx:minimumSize="50 40" id="_F5D53173-B529-464F-88BA-3A6333DA7398">   	<defs id="_F5D53173-B529-464F-88BA-3A6333DA7398__F5D53173-B529-464F-88BA-3A6333DA7398_17"> 		<radialGradient id="_F5D53173-B529-464F-88BA-3A6333DA7398background" cx="10%" cy="10%" r="100%" fx="10%" fy="10%"> 			<stop offset="0%" stop-color="#ffffff" stop-opacity="1" id="_F5D53173-B529-464F-88BA-3A6333DA7398__F5D53173-B529-464F-88BA-3A6333DA7398_18"/> 			<stop id="_F5D53173-B529-464F-88BA-3A6333DA7398fill_el" offset="100%" stop-color="#fafad2" stop-opacity="1"/> 		</radialGradient> 		<radialGradient id="_F5D53173-B529-464F-88BA-3A6333DA7398borderbackground" cx="10%" cy="10%" r="100%" fx="10%" fy="10%"> 			<stop offset="0%" stop-color="#ffffff" stop-opacity="1" id="_F5D53173-B529-464F-88BA-3A6333DA7398__F5D53173-B529-464F-88BA-3A6333DA7398_19"/> 			<stop id="_F5D53173-B529-464F-88BA-3A6333DA7398fill_border" offset="100%" stop-color="#000000" stop-opacity="1" stroke="#000000"/> 		</radialGradient> 	</defs> 	 	<rect id="_F5D53173-B529-464F-88BA-3A6333DA7398text_frame" oryx:anchors="bottom top right left" x="1" y="1" width="94" height="79" rx="10" ry="10" stroke="none" stroke-width="0" fill="none"/> 	<rect id="_F5D53173-B529-464F-88BA-3A6333DA7398bg_frame" oryx:resize="vertical horizontal" x="0" y="0" width="100" height="80" rx="10" ry="10" stroke="#000000" stroke-width="1" fill="url(#_F5D53173-B529-464F-88BA-3A6333DA7398background) #ffffcc"/> 		<text font-size="12" id="_F5D53173-B529-464F-88BA-3A6333DA7398text_name" x="50" y="40" oryx:align="middle center" oryx:fittoelem="text_frame" stroke="black" text-anchor="middle" stroke-width="0pt" letter-spacing="-0.01px" fill="#000000" transform="rotate(0 50 40)" visibility="inherit" oryx:fontSize="12"><tspan x="50" y="40" dy="5" id="ext-gen833">Ordenar Lista</tspan></text>     <g id="_F5D53173-B529-464F-88BA-3A6333DA7398manualTask" transform="scale(0.7,0.7) translate(8,8)" display="none">     	<path oryx:anchors="top left" id="_F5D53173-B529-464F-88BA-3A6333DA7398frame" style="opacity:1;fill:none;fill-opacity:1;stroke-width:1" d="M0.5,3.751l4.083-3.25c0,0,11.166,0.083,12.083,0.083s-2.417,2.917-1.5,2.917     s11.667,0,12.584,0c1.166,1.708-0.168,3.167-0.834,3.667s0.875,1.917-1,4.417c-0.75,0.25,0.75,1.875-1.333,3.333     c-1.167,0.583,0.583,1.542-1.25,2.833c-1.167,0-20.833,0.083-20.833,0.083l-2-1.333V3.751z" stroke="#000000"/> 		<path id="_F5D53173-B529-464F-88BA-3A6333DA7398frame2" oryx:anchors="top left" style="opacity:1;fill:none;stroke-width:2" d="M 13.5 7 L 27 7" stroke="#000000"/> 		<path id="_F5D53173-B529-464F-88BA-3A6333DA7398frame3" oryx:anchors="top left" style="opacity:1;fill:none;stroke-width:2" d="M 13.5 11 L 26 11" stroke="#000000"/> 		<path id="_F5D53173-B529-464F-88BA-3A6333DA7398frame4" oryx:anchors="top left" style="opacity:1;fill:none;stroke-width:1.5" d="M 14 14.5 L 25 14.5" stroke="#000000"/> 		<path id="_F5D53173-B529-464F-88BA-3A6333DA7398frame5" oryx:anchors="top left" style="opacity:1;fill:none;stroke-width:1.5" d="M 8.2 3.1 L 15 3.1" stroke="#000000"/> 	</g> 	 	<g id="_F5D53173-B529-464F-88BA-3A6333DA7398businessRuleTask" transform="scale(0.7,0.7) translate(8,8)" display="none"> 		<rect id="_F5D53173-B529-464F-88BA-3A6333DA7398frame6" oryx:anchors="top left" x="0" y="0" width="22" height="4" style="opacity:1;fill:#B3B1B3;fill-opacity:1;" stroke="#000000"/> 		<rect id="_F5D53173-B529-464F-88BA-3A6333DA7398frame7" oryx:anchors="top left" x="0" y="4" style="opacity:1;fill:none;" width="22" height="12" stroke="#000000"/> 		<path id="_F5D53173-B529-464F-88BA-3A6333DA7398frame8" oryx:anchors="top left" style="opacity:1;fill:none;" d="M 0 10 L 22 10" stroke="#000000"/> 		<path id="_F5D53173-B529-464F-88BA-3A6333DA7398frame9" oryx:anchors="top left" style="opacity:1; fill:none;" d="M 7 4 L 7 16" stroke="#000000"/> 	</g> 	 	<g id="_F5D53173-B529-464F-88BA-3A6333DA7398scriptTask" transform="scale(0.7,0.7) translate(8,8)" display="none"> 		<path oryx:anchors="top left" id="_F5D53173-B529-464F-88BA-3A6333DA7398frame10" style="opacity:1;fill:none;" stroke="#000000" d="M6.402,0.5h14.5c0,0-5.833,2.833-5.833,5.583s4.417,6,4.417,9.167    s-4.167,5.083-4.167,5.083H0.235c0,0,5-2.667,5-5s-4.583-6.75-4.583-9.25S6.402,0.5,6.402,0.5z"/> 		<path oryx:anchors="top left" id="_F5D53173-B529-464F-88BA-3A6333DA7398frame11" style="opacity:1;fill:none;stroke-width:1.5" d="M 3.5 4.5 L 13.5 4.5" stroke="#000000"/> 		<path oryx:anchors="top left" id="_F5D53173-B529-464F-88BA-3A6333DA7398frame12" style="opacity:1;fill:none;stroke-width:1.5" d="M 3.8 8.5 L 13.8 8.5" stroke="#000000"/> 		<path oryx:anchors="top left" id="_F5D53173-B529-464F-88BA-3A6333DA7398frame13" style="opacity:1;fill:none;stroke-width:1.5" d="M 6.3 12.5 L 16.3 12.5" stroke="#000000"/> 		<path oryx:anchors="top left" id="_F5D53173-B529-464F-88BA-3A6333DA7398frame14" style="opacity:1;fill:none;stroke-width:1.5" d="M 6.5 16.5 L 16.5 16.5" stroke="#000000"/> 	</g> 	 	<g id="_F5D53173-B529-464F-88BA-3A6333DA7398userTask" transform="scale(0.7,0.7) translate(8,8)" display="none"> 		<path id="_F5D53173-B529-464F-88BA-3A6333DA7398frame15" oryx:anchors="top left" style="opacity:1;fill:#F4F6F7" stroke="#000000" d="M0.585,24.167h24.083v-7.833c0,0-2.333-3.917-7.083-5.167h-9.25    c-4.417,1.333-7.833,5.75-7.833,5.75L0.585,24.167z"/> 		<path id="_F5D53173-B529-464F-88BA-3A6333DA7398frame16" oryx:anchors="top left" style="opacity:1;fill:none" d="M 6 20 L 6 24" stroke="#000000"/> 		<path id="_F5D53173-B529-464F-88BA-3A6333DA7398frame17" oryx:anchors="top left" style="opacity:1;fill:none" d="M 20 20 L 20 24" stroke="#000000"/> 		<circle id="_F5D53173-B529-464F-88BA-3A6333DA7398frame18" oryx:anchors="top left" fill="black" cx="13.002" cy="5.916" r="5.417" stroke="#000000"/> 		<path id="_F5D53173-B529-464F-88BA-3A6333DA7398frame19" oryx:anchors="top left" style="opacity:1;fill:#F0EFF0;" stroke="#000000" d="M8.043,7.083c0,0,2.814-2.426,5.376-1.807s4.624-0.693,4.624-0.693    c0.25,1.688,0.042,3.75-1.458,5.584c0,0,1.083,0.75,1.083,1.5s0.125,1.875-1,3s-5.5,1.25-6.75,0S8.668,12.834,8.668,12    s0.583-1.25,1.25-1.917C8.835,9.5,7.419,7.708,8.043,7.083z"/> 	</g> 	 	<g id="_F5D53173-B529-464F-88BA-3A6333DA7398serviceTask" transform="scale(0.7,0.7) translate(8,8)" display="inherit"> 		<polygon oryx:anchors="top left" id="_F5D53173-B529-464F-88BA-3A6333DA7398frame20" style="opacity:1;fill:#ffffff" stroke="#000000" points="15.392,5.064 17.954,2.502 20.347,4.895 17.786,7.455     18.729,9.732 22.353,9.732 22.353,13.115 18.731,13.115 17.788,15.392 20.351,17.955 17.958,20.347 15.397,17.786 13.12,18.729     13.12,22.353 9.737,22.353 9.737,18.731 7.46,17.788 4.897,20.35 2.506,17.958 5.066,15.397 4.124,13.12 0.5,13.12 0.5,9.737     4.121,9.737 5.065,7.461 2.503,4.898 4.895,2.506 7.455,5.066 9.732,4.125 9.732,0.5 13.116,0.5 13.116,4.121 "/> 		<circle oryx:anchors="top left" id="_F5D53173-B529-464F-88BA-3A6333DA7398frame21" style="opacity:1;fill:none" stroke="#000000" cx="11.427" cy="11.426" r="3.714"/> 		<polygon oryx:anchors="top left" id="_F5D53173-B529-464F-88BA-3A6333DA7398frame22" style="opacity:1;fill:#ffffff" stroke="#000000" points="21.392,11.064 23.954,8.502 26.347,10.895 23.786,13.455     24.729,15.732 28.353,15.732 28.353,19.115 24.731,19.115 23.788,21.392 26.351,23.955 23.958,26.347 21.397,23.786 19.12,24.729     19.12,28.353 15.737,28.353 15.737,24.731 13.46,23.788 10.897,26.35 8.506,23.958 11.066,21.397 10.124,19.12 6.5,19.12     6.5,15.737 10.121,15.737 11.065,13.461 8.503,10.898 10.895,8.506 13.455,11.066 15.732,10.125 15.732,6.5 19.116,6.5     19.116,10.121 "/> 		<circle oryx:anchors="top left" id="_F5D53173-B529-464F-88BA-3A6333DA7398frame23" style="opacity:1;fill:none;" stroke="#000000" cx="17.427" cy="17.426" r="3.714"/> 	</g> 	 	<g id="_F5D53173-B529-464F-88BA-3A6333DA7398sendTask" display="none"> 		<path id="_F5D53173-B529-464F-88BA-3A6333DA7398stframe24" oryx:anchors="left top" stroke="#FFFFFF" fill="black" stroke-width="1" d="M8,11 L8,21 L24,21 L24,11 L16,17z"/> 		<path id="_F5D53173-B529-464F-88BA-3A6333DA7398stframe25" oryx:anchors="left top" stroke="#FFFFFF" fill="black" stroke-width="1" d="M7,10 L16,17 L25 10z"/> 	</g> 	 	<g id="_F5D53173-B529-464F-88BA-3A6333DA7398receiveTask" display="none"> 		<path id="_F5D53173-B529-464F-88BA-3A6333DA7398frame26" oryx:anchors="left top" stroke="#000000" fill="none" stroke-width="1" d="M8,11 L8,21 L24,21 L24,11z M8,11 L16,17 L24,11"/> 	</g> 	 	<g id="_F5D53173-B529-464F-88BA-3A6333DA7398none" display="inherit"/>  	<g id="_F5D53173-B529-464F-88BA-3A6333DA7398sequential" display="none">         <path oryx:anchors="bottom" fill="none" stroke="#000000" stroke-width="2" d="M46,76h10M46,72h10 M46,68h10" id="_F5D53173-B529-464F-88BA-3A6333DA7398__F5D53173-B529-464F-88BA-3A6333DA7398_20"/>     </g>   </g></g><g class="children" style="overflow:hidden"/><g class="edge"/></g><g class="controls"><g class="dockers"/><g class="magnets" transform="translate(270, 120)"><g pointer-events="all" display="none" transform="translate(-7, 12)"><circle cx="8" cy="8" r="4" stroke="none" fill="red" fill-opacity="0.3"/></g><g pointer-events="all" display="none" transform="translate(-7, 32)"><circle cx="8" cy="8" r="4" stroke="none" fill="red" fill-opacity="0.3"/></g><g pointer-events="all" display="none" transform="translate(-7, 52)"><circle cx="8" cy="8" r="4" stroke="none" fill="red" fill-opacity="0.3"/></g><g pointer-events="all" display="none" transform="translate(17, 71)"><circle cx="8" cy="8" r="4" stroke="none" fill="red" fill-opacity="0.3"/></g><g pointer-events="all" display="none" transform="translate(42, 71)"><circle cx="8" cy="8" r="4" stroke="none" fill="red" fill-opacity="0.3"/></g><g pointer-events="all" display="none" transform="translate(67, 71)"><circle cx="8" cy="8" r="4" stroke="none" fill="red" fill-opacity="0.3"/></g><g pointer-events="all" display="none" transform="translate(91, 12)"><circle cx="8" cy="8" r="4" stroke="none" fill="red" fill-opacity="0.3"/></g><g pointer-events="all" display="none" transform="translate(91, 32)"><circle cx="8" cy="8" r="4" stroke="none" fill="red" fill-opacity="0.3"/></g><g pointer-events="all" display="none" transform="translate(91, 52)"><circle cx="8" cy="8" r="4" stroke="none" fill="red" fill-opacity="0.3"/></g><g pointer-events="all" display="none" transform="translate(17, -7)"><circle cx="8" cy="8" r="4" stroke="none" fill="red" fill-opacity="0.3"/></g><g pointer-events="all" display="none" transform="translate(42, -7)"><circle cx="8" cy="8" r="4" stroke="none" fill="red" fill-opacity="0.3"/></g><g pointer-events="all" display="none" transform="translate(67, -7)"><circle cx="8" cy="8" r="4" stroke="none" fill="red" fill-opacity="0.3"/></g><g pointer-events="all" display="none" transform="translate(42, 32)"><circle cx="8" cy="8" r="4" stroke="none" fill="red" fill-opacity="0.3"/></g></g></g></g><g id="_057745DC-928B-443B-8990-A400D98098FB" bpmn2nodeid="_F5D37805-AA6F-400B-A077-19910722A4EF"><g class="stencils" transform="translate(675, 146)"><g class="me"><g pointer-events="fill" id="_057745DC-928B-443B-8990-A400D98098FB">      <defs id="_057745DC-928B-443B-8990-A400D98098FB__057745DC-928B-443B-8990-A400D98098FB_5"> 		<radialGradient id="_057745DC-928B-443B-8990-A400D98098FBbackground" cx="10%" cy="10%" r="100%" fx="10%" fy="10%"> 			<stop offset="0%" stop-color="#ffffff" stop-opacity="1" id="_057745DC-928B-443B-8990-A400D98098FB__057745DC-928B-443B-8990-A400D98098FB_6"/> 			<stop id="_057745DC-928B-443B-8990-A400D98098FBfill_el" offset="100%" stop-color="#ff6347" stop-opacity="1"/> 		</radialGradient> 	</defs> 	     <circle id="_057745DC-928B-443B-8990-A400D98098FBbg_frame" cx="14" cy="14" r="14" stroke="#000000" fill="url(#_057745DC-928B-443B-8990-A400D98098FBbackground) white" stroke-width="3"/> 	<text font-size="11" id="_057745DC-928B-443B-8990-A400D98098FBtext_name" x="14" y="30" oryx:align="top center" stroke="black" stroke-width="0pt" letter-spacing="-0.01px" fill="#000000" text-anchor="middle" transform="rotate(0 14 30)" visibility="inherit" oryx:fontSize="11"/>   </g></g><g class="children" style="overflow:hidden"/><g class="edge"/></g><g class="controls"><g class="dockers"/><g class="magnets" transform="translate(675, 146)"><g pointer-events="all" display="none" transform="translate(6, 6)"><circle cx="8" cy="8" r="4" stroke="none" fill="red" fill-opacity="0.3"/></g></g></g></g><g id="_0DA586C0-9927-473C-9836-BAF9DA4C2D22" bpmn2nodeid="_2F81ABCB-FD65-4A00-AE4D-D2AE79E0D3E4"><g class="stencils" transform="translate(495, 120)"><g class="me"><g pointer-events="fill" oryx:minimumSize="50 40" id="_0DA586C0-9927-473C-9836-BAF9DA4C2D22">   	<defs id="_0DA586C0-9927-473C-9836-BAF9DA4C2D22__0DA586C0-9927-473C-9836-BAF9DA4C2D22_17"> 		<radialGradient id="_0DA586C0-9927-473C-9836-BAF9DA4C2D22background" cx="10%" cy="10%" r="100%" fx="10%" fy="10%"> 			<stop offset="0%" stop-color="#ffffff" stop-opacity="1" id="_0DA586C0-9927-473C-9836-BAF9DA4C2D22__0DA586C0-9927-473C-9836-BAF9DA4C2D22_18"/> 			<stop id="_0DA586C0-9927-473C-9836-BAF9DA4C2D22fill_el" offset="100%" stop-color="#fafad2" stop-opacity="1"/> 		</radialGradient> 		<radialGradient id="_0DA586C0-9927-473C-9836-BAF9DA4C2D22borderbackground" cx="10%" cy="10%" r="100%" fx="10%" fy="10%"> 			<stop offset="0%" stop-color="#ffffff" stop-opacity="1" id="_0DA586C0-9927-473C-9836-BAF9DA4C2D22__0DA586C0-9927-473C-9836-BAF9DA4C2D22_19"/> 			<stop id="_0DA586C0-9927-473C-9836-BAF9DA4C2D22fill_border" offset="100%" stop-color="#000000" stop-opacity="1" stroke="#000000"/> 		</radialGradient> 	</defs> 	 	<rect id="_0DA586C0-9927-473C-9836-BAF9DA4C2D22text_frame" oryx:anchors="bottom top right left" x="1" y="1" width="94" height="79" rx="10" ry="10" stroke="none" stroke-width="0" fill="none"/> 	<rect id="_0DA586C0-9927-473C-9836-BAF9DA4C2D22bg_frame" oryx:resize="vertical horizontal" x="0" y="0" width="100" height="80" rx="10" ry="10" stroke="#000000" stroke-width="1" fill="url(#_0DA586C0-9927-473C-9836-BAF9DA4C2D22background) #ffffcc"/> 		<text font-size="12" id="_0DA586C0-9927-473C-9836-BAF9DA4C2D22text_name" x="50" y="40" oryx:align="middle center" oryx:fittoelem="text_frame" stroke="black" text-anchor="middle" stroke-width="0pt" letter-spacing="-0.01px" fill="#000000" transform="rotate(0 50 40)" visibility="inherit" oryx:fontSize="12"><tspan x="50" y="40" dy="5">Suma de Lista</tspan></text>     <g id="_0DA586C0-9927-473C-9836-BAF9DA4C2D22manualTask" transform="scale(0.7,0.7) translate(8,8)" display="none">     	<path oryx:anchors="top left" id="_0DA586C0-9927-473C-9836-BAF9DA4C2D22frame" style="opacity:1;fill:none;fill-opacity:1;stroke-width:1" d="M0.5,3.751l4.083-3.25c0,0,11.166,0.083,12.083,0.083s-2.417,2.917-1.5,2.917     s11.667,0,12.584,0c1.166,1.708-0.168,3.167-0.834,3.667s0.875,1.917-1,4.417c-0.75,0.25,0.75,1.875-1.333,3.333     c-1.167,0.583,0.583,1.542-1.25,2.833c-1.167,0-20.833,0.083-20.833,0.083l-2-1.333V3.751z" stroke="#000000"/> 		<path id="_0DA586C0-9927-473C-9836-BAF9DA4C2D22frame2" oryx:anchors="top left" style="opacity:1;fill:none;stroke-width:2" d="M 13.5 7 L 27 7" stroke="#000000"/> 		<path id="_0DA586C0-9927-473C-9836-BAF9DA4C2D22frame3" oryx:anchors="top left" style="opacity:1;fill:none;stroke-width:2" d="M 13.5 11 L 26 11" stroke="#000000"/> 		<path id="_0DA586C0-9927-473C-9836-BAF9DA4C2D22frame4" oryx:anchors="top left" style="opacity:1;fill:none;stroke-width:1.5" d="M 14 14.5 L 25 14.5" stroke="#000000"/> 		<path id="_0DA586C0-9927-473C-9836-BAF9DA4C2D22frame5" oryx:anchors="top left" style="opacity:1;fill:none;stroke-width:1.5" d="M 8.2 3.1 L 15 3.1" stroke="#000000"/> 	</g> 	 	<g id="_0DA586C0-9927-473C-9836-BAF9DA4C2D22businessRuleTask" transform="scale(0.7,0.7) translate(8,8)" display="none"> 		<rect id="_0DA586C0-9927-473C-9836-BAF9DA4C2D22frame6" oryx:anchors="top left" x="0" y="0" width="22" height="4" style="opacity:1;fill:#B3B1B3;fill-opacity:1;" stroke="#000000"/> 		<rect id="_0DA586C0-9927-473C-9836-BAF9DA4C2D22frame7" oryx:anchors="top left" x="0" y="4" style="opacity:1;fill:none;" width="22" height="12" stroke="#000000"/> 		<path id="_0DA586C0-9927-473C-9836-BAF9DA4C2D22frame8" oryx:anchors="top left" style="opacity:1;fill:none;" d="M 0 10 L 22 10" stroke="#000000"/> 		<path id="_0DA586C0-9927-473C-9836-BAF9DA4C2D22frame9" oryx:anchors="top left" style="opacity:1; fill:none;" d="M 7 4 L 7 16" stroke="#000000"/> 	</g> 	 	<g id="_0DA586C0-9927-473C-9836-BAF9DA4C2D22scriptTask" transform="scale(0.7,0.7) translate(8,8)" display="none"> 		<path oryx:anchors="top left" id="_0DA586C0-9927-473C-9836-BAF9DA4C2D22frame10" style="opacity:1;fill:none;" stroke="#000000" d="M6.402,0.5h14.5c0,0-5.833,2.833-5.833,5.583s4.417,6,4.417,9.167    s-4.167,5.083-4.167,5.083H0.235c0,0,5-2.667,5-5s-4.583-6.75-4.583-9.25S6.402,0.5,6.402,0.5z"/> 		<path oryx:anchors="top left" id="_0DA586C0-9927-473C-9836-BAF9DA4C2D22frame11" style="opacity:1;fill:none;stroke-width:1.5" d="M 3.5 4.5 L 13.5 4.5" stroke="#000000"/> 		<path oryx:anchors="top left" id="_0DA586C0-9927-473C-9836-BAF9DA4C2D22frame12" style="opacity:1;fill:none;stroke-width:1.5" d="M 3.8 8.5 L 13.8 8.5" stroke="#000000"/> 		<path oryx:anchors="top left" id="_0DA586C0-9927-473C-9836-BAF9DA4C2D22frame13" style="opacity:1;fill:none;stroke-width:1.5" d="M 6.3 12.5 L 16.3 12.5" stroke="#000000"/> 		<path oryx:anchors="top left" id="_0DA586C0-9927-473C-9836-BAF9DA4C2D22frame14" style="opacity:1;fill:none;stroke-width:1.5" d="M 6.5 16.5 L 16.5 16.5" stroke="#000000"/> 	</g> 	 	<g id="_0DA586C0-9927-473C-9836-BAF9DA4C2D22userTask" transform="scale(0.7,0.7) translate(8,8)" display="none"> 		<path id="_0DA586C0-9927-473C-9836-BAF9DA4C2D22frame15" oryx:anchors="top left" style="opacity:1;fill:#F4F6F7" stroke="#000000" d="M0.585,24.167h24.083v-7.833c0,0-2.333-3.917-7.083-5.167h-9.25    c-4.417,1.333-7.833,5.75-7.833,5.75L0.585,24.167z"/> 		<path id="_0DA586C0-9927-473C-9836-BAF9DA4C2D22frame16" oryx:anchors="top left" style="opacity:1;fill:none" d="M 6 20 L 6 24" stroke="#000000"/> 		<path id="_0DA586C0-9927-473C-9836-BAF9DA4C2D22frame17" oryx:anchors="top left" style="opacity:1;fill:none" d="M 20 20 L 20 24" stroke="#000000"/> 		<circle id="_0DA586C0-9927-473C-9836-BAF9DA4C2D22frame18" oryx:anchors="top left" fill="black" cx="13.002" cy="5.916" r="5.417" stroke="#000000"/> 		<path id="_0DA586C0-9927-473C-9836-BAF9DA4C2D22frame19" oryx:anchors="top left" style="opacity:1;fill:#F0EFF0;" stroke="#000000" d="M8.043,7.083c0,0,2.814-2.426,5.376-1.807s4.624-0.693,4.624-0.693    c0.25,1.688,0.042,3.75-1.458,5.584c0,0,1.083,0.75,1.083,1.5s0.125,1.875-1,3s-5.5,1.25-6.75,0S8.668,12.834,8.668,12    s0.583-1.25,1.25-1.917C8.835,9.5,7.419,7.708,8.043,7.083z"/> 	</g> 	 	<g id="_0DA586C0-9927-473C-9836-BAF9DA4C2D22serviceTask" transform="scale(0.7,0.7) translate(8,8)" display="inherit"> 		<polygon oryx:anchors="top left" id="_0DA586C0-9927-473C-9836-BAF9DA4C2D22frame20" style="opacity:1;fill:#ffffff" stroke="#000000" points="15.392,5.064 17.954,2.502 20.347,4.895 17.786,7.455     18.729,9.732 22.353,9.732 22.353,13.115 18.731,13.115 17.788,15.392 20.351,17.955 17.958,20.347 15.397,17.786 13.12,18.729     13.12,22.353 9.737,22.353 9.737,18.731 7.46,17.788 4.897,20.35 2.506,17.958 5.066,15.397 4.124,13.12 0.5,13.12 0.5,9.737     4.121,9.737 5.065,7.461 2.503,4.898 4.895,2.506 7.455,5.066 9.732,4.125 9.732,0.5 13.116,0.5 13.116,4.121 "/> 		<circle oryx:anchors="top left" id="_0DA586C0-9927-473C-9836-BAF9DA4C2D22frame21" style="opacity:1;fill:none" stroke="#000000" cx="11.427" cy="11.426" r="3.714"/> 		<polygon oryx:anchors="top left" id="_0DA586C0-9927-473C-9836-BAF9DA4C2D22frame22" style="opacity:1;fill:#ffffff" stroke="#000000" points="21.392,11.064 23.954,8.502 26.347,10.895 23.786,13.455     24.729,15.732 28.353,15.732 28.353,19.115 24.731,19.115 23.788,21.392 26.351,23.955 23.958,26.347 21.397,23.786 19.12,24.729     19.12,28.353 15.737,28.353 15.737,24.731 13.46,23.788 10.897,26.35 8.506,23.958 11.066,21.397 10.124,19.12 6.5,19.12     6.5,15.737 10.121,15.737 11.065,13.461 8.503,10.898 10.895,8.506 13.455,11.066 15.732,10.125 15.732,6.5 19.116,6.5     19.116,10.121 "/> 		<circle oryx:anchors="top left" id="_0DA586C0-9927-473C-9836-BAF9DA4C2D22frame23" style="opacity:1;fill:none;" stroke="#000000" cx="17.427" cy="17.426" r="3.714"/> 	</g> 	 	<g id="_0DA586C0-9927-473C-9836-BAF9DA4C2D22sendTask" display="none"> 		<path id="_0DA586C0-9927-473C-9836-BAF9DA4C2D22stframe24" oryx:anchors="left top" stroke="#FFFFFF" fill="black" stroke-width="1" d="M8,11 L8,21 L24,21 L24,11 L16,17z"/> 		<path id="_0DA586C0-9927-473C-9836-BAF9DA4C2D22stframe25" oryx:anchors="left top" stroke="#FFFFFF" fill="black" stroke-width="1" d="M7,10 L16,17 L25 10z"/> 	</g> 	 	<g id="_0DA586C0-9927-473C-9836-BAF9DA4C2D22receiveTask" display="none"> 		<path id="_0DA586C0-9927-473C-9836-BAF9DA4C2D22frame26" oryx:anchors="left top" stroke="#000000" fill="none" stroke-width="1" d="M8,11 L8,21 L24,21 L24,11z M8,11 L16,17 L24,11"/> 	</g> 	 	<g id="_0DA586C0-9927-473C-9836-BAF9DA4C2D22none" display="inherit"/>  	<g id="_0DA586C0-9927-473C-9836-BAF9DA4C2D22sequential" display="none">         <path oryx:anchors="bottom" fill="none" stroke="#000000" stroke-width="2" d="M46,76h10M46,72h10 M46,68h10" id="_0DA586C0-9927-473C-9836-BAF9DA4C2D22__0DA586C0-9927-473C-9836-BAF9DA4C2D22_20"/>     </g>   </g></g><g class="children" style="overflow:hidden"/><g class="edge"/></g><g class="controls"><g class="dockers"/><g class="magnets" transform="translate(495, 120)"><g pointer-events="all" display="none" transform="translate(-7, 12)"><circle cx="8" cy="8" r="4" stroke="none" fill="red" fill-opacity="0.3"/></g><g pointer-events="all" display="none" transform="translate(-7, 32)"><circle cx="8" cy="8" r="4" stroke="none" fill="red" fill-opacity="0.3"/></g><g pointer-events="all" display="none" transform="translate(-7, 52)"><circle cx="8" cy="8" r="4" stroke="none" fill="red" fill-opacity="0.3"/></g><g pointer-events="all" display="none" transform="translate(17, 71)"><circle cx="8" cy="8" r="4" stroke="none" fill="red" fill-opacity="0.3"/></g><g pointer-events="all" display="none" transform="translate(42, 71)"><circle cx="8" cy="8" r="4" stroke="none" fill="red" fill-opacity="0.3"/></g><g pointer-events="all" display="none" transform="translate(67, 71)"><circle cx="8" cy="8" r="4" stroke="none" fill="red" fill-opacity="0.3"/></g><g pointer-events="all" display="none" transform="translate(91, 12)"><circle cx="8" cy="8" r="4" stroke="none" fill="red" fill-opacity="0.3"/></g><g pointer-events="all" display="none" transform="translate(91, 32)"><circle cx="8" cy="8" r="4" stroke="none" fill="red" fill-opacity="0.3"/></g><g pointer-events="all" display="none" transform="translate(91, 52)"><circle cx="8" cy="8" r="4" stroke="none" fill="red" fill-opacity="0.3"/></g><g pointer-events="all" display="none" transform="translate(17, -7)"><circle cx="8" cy="8" r="4" stroke="none" fill="red" fill-opacity="0.3"/></g><g pointer-events="all" display="none" transform="translate(42, -7)"><circle cx="8" cy="8" r="4" stroke="none" fill="red" fill-opacity="0.3"/></g><g pointer-events="all" display="none" transform="translate(67, -7)"><circle cx="8" cy="8" r="4" stroke="none" fill="red" fill-opacity="0.3"/></g><g pointer-events="all" display="none" transform="translate(42, 32)"><circle cx="8" cy="8" r="4" stroke="none" fill="red" fill-opacity="0.3"/></g></g></g></g></g><g class="edge"><g id="_0B8A351C-5D08-4E7A-A5C5-51FF788C1392" bpmn2nodeid="_A57E7BEF-FBCB-4FCB-9D06-BC2BA15449CD"><g class="stencils"><g class="me"><g pointer-events="painted" bpmn2nodeid="_D64B52BE-CCA0-4920-AAF3-242B555F3CB2"><path id="_0B8A351C-5D08-4E7A-A5C5-51FF788C1392_1" d="M370.21875 160L494.78125 160 " stroke="#000000" fill="none" stroke-width="2" stroke-linecap="round" stroke-linejoin="round" marker-start="url(#_0B8A351C-5D08-4E7A-A5C5-51FF788C1392start)" marker-end="url(#_0B8A351C-5D08-4E7A-A5C5-51FF788C1392end)"/></g><text id="_0B8A351C-5D08-4E7A-A5C5-51FF788C1392text_name" font-size="12" x="384.21875" y="146" oryx:edgePosition="startTop" stroke-width="0pt" letter-spacing="-0.01px" fill="#000000" text-anchor="start" transform="rotate(360 370.21875 160)" visibility="inherit" oryx:fontSize="12"/></g><g class="children" style="overflow:hidden"/><g class="edge"/></g><g class="controls"><g class="dockers"/><g class="magnets"/></g></g><g id="_36115742-3B4C-41EF-A7B5-39FF82F5C458" bpmn2nodeid="_1B2796BC-82BC-405F-935C-5FDD5C22C957"><g class="stencils"><g class="me"><g pointer-events="painted" bpmn2nodeid="_D8743402-D636-45A4-A121-BD3AA517BAA3"><path id="_36115742-3B4C-41EF-A7B5-39FF82F5C458_1" d="M595.5 160L674.5 160 " stroke="#000000" fill="none" stroke-width="2" stroke-linecap="round" stroke-linejoin="round" marker-start="url(#_36115742-3B4C-41EF-A7B5-39FF82F5C458start)" marker-end="url(#_36115742-3B4C-41EF-A7B5-39FF82F5C458end)"/></g><text id="_36115742-3B4C-41EF-A7B5-39FF82F5C458text_name" font-size="12" x="609.5" y="146" oryx:edgePosition="startTop" stroke-width="0pt" letter-spacing="-0.01px" fill="#000000" text-anchor="start" transform="rotate(360 595.5 160)" visibility="inherit" oryx:fontSize="12"/></g><g class="children" style="overflow:hidden"/><g class="edge"/></g><g class="controls"><g class="dockers"/><g class="magnets"/></g></g><g id="_207B5BAF-B519-477B-AA6D-72F365738CF3" bpmn2nodeid="_576D6BE1-8A34-418C-BEFE-CCA40E4165BC"><g class="stencils"><g class="me"><g pointer-events="painted" bpmn2nodeid="_0A84D06E-4F50-4CD8-AEBA-5C796D43DF86"><path id="_207B5BAF-B519-477B-AA6D-72F365738CF3_1" d="M150.453125 160L269.859375 160 " stroke="#000000" fill="none" stroke-width="2" stroke-linecap="round" stroke-linejoin="round" marker-start="url(#_207B5BAF-B519-477B-AA6D-72F365738CF3start)" marker-end="url(#_207B5BAF-B519-477B-AA6D-72F365738CF3end)"/></g><text id="_207B5BAF-B519-477B-AA6D-72F365738CF3text_name" font-size="12" x="164.453125" y="146" oryx:edgePosition="startTop" stroke-width="0pt" letter-spacing="-0.01px" fill="#000000" text-anchor="start" transform="rotate(360 150.453125 160)" visibility="inherit" oryx:fontSize="12"/></g><g class="children" style="overflow:hidden"/><g class="edge"/></g><g class="controls"><g class="dockers"/><g class="magnets"/></g></g></g><text id="_5BAEEEB2-D56D-435A-A90B-A1B1E124AE32" style="stroke-width:1;fill:rgb(177,194,214);font-family:arial;font-weight:bold" font-size="12" onclick="ORYX.Plugins.CanvasTitle.openTextualAnalysis()" onmouseover="ORYX.Plugins.CanvasTitle.addToolTip('_5BAEEEB2-D56D-435A-A90B-A1B1E124AE32')" transform="translate(10, 20)">ResgitroPersonas v.1.0 (com.myspace.cursojbpmintegrations.bpd.ResgitroPersonas)</text></g></g></svg>